<mxfile host="app.diagrams.net" agent="Mozilla/5.0 (Windows NT 10.0; Win64; x64) AppleWebKit/537.36 (KHTML, like Gecko) Chrome/137.0.0.0 Safari/537.36" version="27.2.0">
  <diagram name="第 1 页" id="JENqasZ1mPjvswRLHKh5">
    <mxGraphModel dx="663" dy="349" grid="1" gridSize="10" guides="1" tooltips="1" connect="1" arrows="1" fold="1" page="1" pageScale="1" pageWidth="827" pageHeight="1169" math="0" shadow="0">
      <root>
        <mxCell id="0" />
        <mxCell id="1" parent="0" />
        <mxCell id="-pj--SJAyk4YY9NGROmd-1" value="" style="ellipse;whiteSpace=wrap;html=1;aspect=fixed;fillColor=#000000;" vertex="1" parent="1">
          <mxGeometry x="80" y="410" width="20" height="20" as="geometry" />
        </mxCell>
        <mxCell id="-pj--SJAyk4YY9NGROmd-2" value="" style="ellipse;whiteSpace=wrap;html=1;aspect=fixed;fillColor=#000000;" vertex="1" parent="1">
          <mxGeometry x="230" y="260" width="20" height="20" as="geometry" />
        </mxCell>
        <mxCell id="-pj--SJAyk4YY9NGROmd-3" value="" style="ellipse;whiteSpace=wrap;html=1;aspect=fixed;fillColor=#000000;" vertex="1" parent="1">
          <mxGeometry x="460" y="220" width="20" height="20" as="geometry" />
        </mxCell>
        <mxCell id="-pj--SJAyk4YY9NGROmd-4" value="" style="ellipse;whiteSpace=wrap;html=1;aspect=fixed;fillColor=#000000;" vertex="1" parent="1">
          <mxGeometry x="620" y="320" width="20" height="20" as="geometry" />
        </mxCell>
        <mxCell id="-pj--SJAyk4YY9NGROmd-6" value="P&lt;sub&gt;1&lt;/sub&gt;" style="text;html=1;align=center;verticalAlign=middle;whiteSpace=wrap;rounded=0;" vertex="1" parent="1">
          <mxGeometry x="30" y="410" width="40" height="30" as="geometry" />
        </mxCell>
        <mxCell id="-pj--SJAyk4YY9NGROmd-7" value="P&lt;sub&gt;2&lt;/sub&gt;" style="text;html=1;align=center;verticalAlign=middle;whiteSpace=wrap;rounded=0;" vertex="1" parent="1">
          <mxGeometry x="180" y="255" width="40" height="30" as="geometry" />
        </mxCell>
        <mxCell id="-pj--SJAyk4YY9NGROmd-8" value="P&lt;sub&gt;3&lt;/sub&gt;" style="text;html=1;align=center;verticalAlign=middle;whiteSpace=wrap;rounded=0;" vertex="1" parent="1">
          <mxGeometry x="490" y="210" width="40" height="30" as="geometry" />
        </mxCell>
        <mxCell id="-pj--SJAyk4YY9NGROmd-9" value="P&lt;sub&gt;4&lt;/sub&gt;" style="text;html=1;align=center;verticalAlign=middle;whiteSpace=wrap;rounded=0;" vertex="1" parent="1">
          <mxGeometry x="640" y="330" width="40" height="30" as="geometry" />
        </mxCell>
        <mxCell id="-pj--SJAyk4YY9NGROmd-10" value="" style="endArrow=none;html=1;rounded=0;" edge="1" parent="1" source="-pj--SJAyk4YY9NGROmd-1" target="-pj--SJAyk4YY9NGROmd-2">
          <mxGeometry width="50" height="50" relative="1" as="geometry">
            <mxPoint x="170" y="410" as="sourcePoint" />
            <mxPoint x="220" y="360" as="targetPoint" />
          </mxGeometry>
        </mxCell>
        <mxCell id="-pj--SJAyk4YY9NGROmd-11" value="" style="endArrow=none;html=1;rounded=0;" edge="1" parent="1" source="-pj--SJAyk4YY9NGROmd-23" target="-pj--SJAyk4YY9NGROmd-3">
          <mxGeometry width="50" height="50" relative="1" as="geometry">
            <mxPoint x="320" y="466" as="sourcePoint" />
            <mxPoint x="456" y="330" as="targetPoint" />
          </mxGeometry>
        </mxCell>
        <mxCell id="-pj--SJAyk4YY9NGROmd-12" value="" style="endArrow=none;html=1;rounded=0;" edge="1" parent="1" source="-pj--SJAyk4YY9NGROmd-3">
          <mxGeometry width="50" height="50" relative="1" as="geometry">
            <mxPoint x="460" y="356" as="sourcePoint" />
            <mxPoint x="630" y="330" as="targetPoint" />
          </mxGeometry>
        </mxCell>
        <mxCell id="-pj--SJAyk4YY9NGROmd-13" value="" style="endArrow=none;dashed=1;html=1;rounded=0;dashPattern=8 8;startSize=6;movable=0;resizable=0;rotatable=0;deletable=0;editable=0;locked=1;connectable=0;" edge="1" parent="1">
          <mxGeometry width="50" height="50" relative="1" as="geometry">
            <mxPoint x="240" y="270" as="sourcePoint" />
            <mxPoint x="420" y="90" as="targetPoint" />
          </mxGeometry>
        </mxCell>
        <mxCell id="-pj--SJAyk4YY9NGROmd-19" value="" style="ellipse;fillColor=#000000;" vertex="1" parent="1">
          <mxGeometry x="347" y="153" width="10" height="10" as="geometry" />
        </mxCell>
        <mxCell id="-pj--SJAyk4YY9NGROmd-20" value="" style="endArrow=none;html=1;rounded=0;dashed=1;dashPattern=8 8;movable=0;resizable=0;rotatable=0;deletable=0;editable=0;locked=1;connectable=0;" edge="1" parent="1">
          <mxGeometry width="50" height="50" relative="1" as="geometry">
            <mxPoint x="308" y="130" as="sourcePoint" />
            <mxPoint x="460" y="225" as="targetPoint" />
          </mxGeometry>
        </mxCell>
        <mxCell id="-pj--SJAyk4YY9NGROmd-22" value="&lt;span&gt;P&lt;sub&gt;i&lt;/sub&gt;&lt;/span&gt;" style="text;html=1;align=center;verticalAlign=middle;whiteSpace=wrap;rounded=0;fontSize=10;" vertex="1" parent="1">
          <mxGeometry x="307" y="143" width="40" height="30" as="geometry" />
        </mxCell>
        <mxCell id="-pj--SJAyk4YY9NGROmd-24" value="" style="endArrow=none;html=1;rounded=0;" edge="1" parent="1" source="-pj--SJAyk4YY9NGROmd-2" target="-pj--SJAyk4YY9NGROmd-23">
          <mxGeometry width="50" height="50" relative="1" as="geometry">
            <mxPoint x="250" y="268" as="sourcePoint" />
            <mxPoint x="460" y="232" as="targetPoint" />
          </mxGeometry>
        </mxCell>
        <mxCell id="-pj--SJAyk4YY9NGROmd-23" value="" style="ellipse;fillColor=#000000;" vertex="1" parent="1">
          <mxGeometry x="347" y="245" width="10" height="10" as="geometry" />
        </mxCell>
        <mxCell id="-pj--SJAyk4YY9NGROmd-25" value="P&lt;sub&gt;mid&lt;/sub&gt;" style="text;html=1;align=center;verticalAlign=middle;whiteSpace=wrap;rounded=0;fontSize=10;" vertex="1" parent="1">
          <mxGeometry x="320" y="260" width="40" height="30" as="geometry" />
        </mxCell>
        <mxCell id="-pj--SJAyk4YY9NGROmd-26" value="" style="endArrow=none;dashed=1;html=1;rounded=0;entryX=0.546;entryY=0.756;entryDx=0;entryDy=0;entryPerimeter=0;" edge="1" parent="1" source="-pj--SJAyk4YY9NGROmd-27" target="-pj--SJAyk4YY9NGROmd-19">
          <mxGeometry width="50" height="50" relative="1" as="geometry">
            <mxPoint x="330" y="240" as="sourcePoint" />
            <mxPoint x="380" y="190" as="targetPoint" />
          </mxGeometry>
        </mxCell>
        <mxCell id="-pj--SJAyk4YY9NGROmd-28" value="" style="endArrow=none;dashed=1;html=1;rounded=0;entryX=0.546;entryY=0.756;entryDx=0;entryDy=0;entryPerimeter=0;" edge="1" parent="1" source="-pj--SJAyk4YY9NGROmd-23" target="-pj--SJAyk4YY9NGROmd-27">
          <mxGeometry width="50" height="50" relative="1" as="geometry">
            <mxPoint x="352" y="245" as="sourcePoint" />
            <mxPoint x="352" y="161" as="targetPoint" />
          </mxGeometry>
        </mxCell>
        <mxCell id="-pj--SJAyk4YY9NGROmd-27" value="" style="ellipse;fillColor=#000000;" vertex="1" parent="1">
          <mxGeometry x="347" y="200" width="10" height="10" as="geometry" />
        </mxCell>
        <mxCell id="-pj--SJAyk4YY9NGROmd-29" value="P&lt;sub&gt;merge&lt;/sub&gt;" style="text;html=1;align=center;verticalAlign=middle;whiteSpace=wrap;rounded=0;fontSize=10;" vertex="1" parent="1">
          <mxGeometry x="307" y="200" width="40" height="30" as="geometry" />
        </mxCell>
        <mxCell id="-pj--SJAyk4YY9NGROmd-30" value="" style="endArrow=none;dashed=1;html=1;strokeWidth=1;rounded=0;entryX=0.721;entryY=0.542;entryDx=0;entryDy=0;entryPerimeter=0;fontSize=7;" edge="1" parent="1" source="-pj--SJAyk4YY9NGROmd-4" target="-pj--SJAyk4YY9NGROmd-27">
          <mxGeometry width="50" height="50" relative="1" as="geometry">
            <mxPoint x="603.5731822840252" y="351.3789140546421" as="sourcePoint" />
            <mxPoint x="336.42" y="229.9999999999999" as="targetPoint" />
          </mxGeometry>
        </mxCell>
      </root>
    </mxGraphModel>
  </diagram>
</mxfile>
